<?xml version="1.0" encoding="UTF-8"?>
<svg width="23px" height="22px" viewBox="0 0 23 22" version="1.1" xmlns="http://www.w3.org/2000/svg" xmlns:xlink="http://www.w3.org/1999/xlink">
    <!-- Generator: Sketch 51.3 (57544) - http://www.bohemiancoding.com/sketch -->
    <title>bed (2) copy 2</title>
    <desc>Created with Sketch.</desc>
    <defs></defs>
    <g id="Page-1" stroke="none" stroke-width="1" fill="none" fill-rule="evenodd">
        <g id="Artboard-2" transform="translate(-472.000000, -197.000000)" fill="#3C4044" fill-rule="nonzero">
            <g id="bed-(2)" transform="translate(472.000000, 197.000000)">
                <path d="M19.9977946,9.48757008 L19.9977946,2.77141377 C19.9977946,1.48019737 19.1173243,0 18.0351093,0 L4.00785947,0 C2.92564442,0 2.04517419,1.48019737 2.04517419,2.77141377 L2.04517419,9.48757008 C0.867425262,9.87657362 0,11.1658894 0,12.693138 L0,16.713542 C0,17.144718 0.293016495,17.4943229 0.654400635,17.4943229 L2.04517419,17.4943229 L2.04517419,21.2192191 C2.04517419,21.6503951 2.33819069,22 2.69957483,22 C3.06095897,22 3.35397546,21.6503951 3.35397546,21.2192191 L3.35397546,17.4943229 L18.6889933,17.4943229 L18.6889933,21.2192191 C18.6889933,21.6503951 18.9820098,22 19.3433939,22 C19.7047781,22 19.9977946,21.6503951 19.9977946,21.2192191 L19.9977946,17.4943229 L21.3885681,17.4943229 C21.7499523,17.4943229 22.0429688,17.144718 22.0429688,16.713542 L22.0429687,12.693138 C22.0429687,11.1658894 21.1755004,9.87657362 19.9977946,9.48757008 Z M3.35810852,2.32453898 C3.35810852,1.89343875 3.65131048,1.54264857 4.01163822,1.54264857 L18.0313305,1.54264857 C18.3916583,1.54264857 18.6848602,1.89343875 18.6848602,2.32453898 L18.6848602,9.36225666 L17.1523701,9.36225666 L17.1523701,7.36183843 C17.1523701,5.99600128 16.2236247,4.88483966 15.0820131,4.88483966 L12.4378168,4.88483966 C11.8903114,4.88483966 11.3921176,5.14085369 11.0215059,5.55759077 C10.6508941,5.14090517 10.1527004,4.88483966 9.60519498,4.88483966 L6.96099866,4.88483966 C5.81938709,4.88483966 4.89064169,5.99605276 4.89064169,7.36183843 L4.89064169,9.36225666 L3.35810852,9.36225666 L3.35810852,2.32453898 Z M15.8433838,7.52879354 L15.8433838,9.36214395 L11.6672745,9.36214395 L11.6672745,7.52879354 C11.6672745,6.94179212 12.0098739,6.46433145 12.4308815,6.46433145 L15.0797337,6.46433145 C15.5008275,6.46433145 15.8433838,6.94185221 15.8433838,7.52879354 Z M10.3756943,7.52879354 L10.3756943,9.36214395 L6.19958496,9.36214395 L6.19958496,7.52879354 C6.19958496,6.94179212 6.54218438,6.46433145 6.96319199,6.46433145 L9.61204414,6.46433145 C10.033138,6.46433145 10.3756943,6.94185221 10.3756943,7.52879354 Z M20.7083359,16.0703125 L1.2915802,16.0703125 L1.2915802,12.5824541 C1.2915802,11.6574756 1.95481388,10.9049052 2.77008524,10.9049052 L19.2298308,10.9049052 C20.0450592,10.9049052 20.7083359,11.6574268 20.7083359,12.5824541 L20.7083359,16.0703125 Z" id="Shape"></path>
            </g>
        </g>
    </g>
</svg>