<?xml version="1.0" encoding="UTF-8"?>
<svg width="22px" height="22px" viewBox="0 0 22 22" version="1.1" xmlns="http://www.w3.org/2000/svg" xmlns:xlink="http://www.w3.org/1999/xlink">
    <!-- Generator: Sketch 51.3 (57544) - http://www.bohemiancoding.com/sketch -->
    <title>building (5) copy</title>
    <desc>Created with Sketch.</desc>
    <defs></defs>
    <g id="Page-1" stroke="none" stroke-width="1" fill="none" fill-rule="evenodd">
        <g id="Artboard-2" transform="translate(-72.000000, -197.000000)" fill="#3C4044">
            <g id="building-(5)" transform="translate(72.000000, 197.000000)">
                <g>
                    <path d="M21.6333333,21.1851852 L19.4333333,21.1851852 L19.4333333,6.11111111 C19.4333333,5.88612037 19.2691583,5.7037037 19.0666667,5.7037037 L12.8333333,5.7037037 L12.8333333,0.407407407 C12.8333333,0.182416667 12.6691583,0 12.4666667,0 L2.93333333,0 C2.73084167,0 2.56666667,0.182416667 2.56666667,0.407407407 L2.56666667,21.1851852 L0.366666667,21.1851852 C0.164175,21.1851852 0,21.3676019 0,21.5925926 C0,21.8175833 0.164175,22 0.366666667,22 L21.6333333,22 C21.835825,22 22,21.8175833 22,21.5925926 C22,21.3676019 21.835825,21.1851852 21.6333333,21.1851852 Z M11.5041667,20.625 L3.89583333,20.625 L3.89583333,1.52777778 L11.5041667,1.52777778 L11.5041667,20.625 Z M18.1958333,20.625 L12.925,20.625 L12.925,7.0787037 L18.1958333,7.0787037 L18.1958333,20.625 Z" id="Shape" fill-rule="nonzero"></path>
                    <path d="M8.75416667,5.54583333 L9.85416667,5.54583333 C9.9554125,5.54583333 10.0375,5.38165833 10.0375,5.17916667 L10.0375,2.97916667 C10.0375,2.776675 9.9554125,2.6125 9.85416667,2.6125 L8.75416667,2.6125 C8.65292083,2.6125 8.57083333,2.776675 8.57083333,2.97916667 L8.57083333,5.17916667 C8.57083333,5.38165833 8.65292083,5.54583333 8.75416667,5.54583333 Z" id="Shape" fill-rule="nonzero"></path>
                    <path d="M8.75416667,9.99166667 L9.85416667,9.99166667 C9.9554125,9.99166667 10.0375,9.82749167 10.0375,9.625 L10.0375,7.425 C10.0375,7.22250833 9.9554125,7.05833333 9.85416667,7.05833333 L8.75416667,7.05833333 C8.65292083,7.05833333 8.57083333,7.22250833 8.57083333,7.425 L8.57083333,9.625 C8.57083333,9.82749167 8.65292083,9.99166667 8.75416667,9.99166667 Z" id="Shape-Copy" fill-rule="nonzero"></path>
                    <path d="M15.125,11.2291667 L16.225,11.2291667 C16.3262458,11.2291667 16.4083333,11.0649917 16.4083333,10.8625 L16.4083333,8.6625 C16.4083333,8.46000833 16.3262458,8.29583333 16.225,8.29583333 L15.125,8.29583333 C15.0237542,8.29583333 14.9416667,8.46000833 14.9416667,8.6625 L14.9416667,10.8625 C14.9416667,11.0649917 15.0237542,11.2291667 15.125,11.2291667 Z" id="Shape-Copy-7" fill-rule="nonzero"></path>
                    <path d="M15.125,15.4 L16.225,15.4 C16.3262458,15.4 16.4083333,15.235825 16.4083333,15.0333333 L16.4083333,12.8333333 C16.4083333,12.6308417 16.3262458,12.4666667 16.225,12.4666667 L15.125,12.4666667 C15.0237542,12.4666667 14.9416667,12.6308417 14.9416667,12.8333333 L14.9416667,15.0333333 C14.9416667,15.235825 15.0237542,15.4 15.125,15.4 Z" id="Shape-Copy-8" fill-rule="nonzero"></path>
                    <path d="M15.125,19.5708333 L16.225,19.5708333 C16.3262458,19.5708333 16.4083333,19.4066583 16.4083333,19.2041667 L16.4083333,17.0041667 C16.4083333,16.801675 16.3262458,16.6375 16.225,16.6375 L15.125,16.6375 C15.0237542,16.6375 14.9416667,16.801675 14.9416667,17.0041667 L14.9416667,19.2041667 C14.9416667,19.4066583 15.0237542,19.5708333 15.125,19.5708333 Z" id="Shape-Copy-9" fill-rule="nonzero"></path>
                    <path d="M8.75416667,14.6666667 L9.85416667,14.6666667 C9.9554125,14.6666667 10.0375,14.5024917 10.0375,14.3 L10.0375,12.1 C10.0375,11.8975083 9.9554125,11.7333333 9.85416667,11.7333333 L8.75416667,11.7333333 C8.65292083,11.7333333 8.57083333,11.8975083 8.57083333,12.1 L8.57083333,14.3 C8.57083333,14.5024917 8.65292083,14.6666667 8.75416667,14.6666667 Z" id="Shape-Copy-3" fill-rule="nonzero"></path>
                    <path d="M8.75416667,19.0666667 L9.85416667,19.0666667 C9.9554125,19.0666667 10.0375,18.9024917 10.0375,18.7 L10.0375,16.5 C10.0375,16.2975083 9.9554125,16.1333333 9.85416667,16.1333333 L8.75416667,16.1333333 C8.65292083,16.1333333 8.57083333,16.2975083 8.57083333,16.5 L8.57083333,18.7 C8.57083333,18.9024917 8.65292083,19.0666667 8.75416667,19.0666667 Z" id="Shape-Copy-5" fill-rule="nonzero"></path>
                    <path d="M5.3625,5.54583333 L6.4625,5.54583333 C6.56374583,5.54583333 6.64583333,5.38165833 6.64583333,5.17916667 L6.64583333,2.97916667 C6.64583333,2.776675 6.56374583,2.6125 6.4625,2.6125 L5.3625,2.6125 C5.26125417,2.6125 5.17916667,2.776675 5.17916667,2.97916667 L5.17916667,5.17916667 C5.17916667,5.38165833 5.26125417,5.54583333 5.3625,5.54583333 Z" id="Shape" fill-rule="nonzero"></path>
                    <path d="M5.3625,9.99166667 L6.4625,9.99166667 C6.56374583,9.99166667 6.64583333,9.82749167 6.64583333,9.625 L6.64583333,7.425 C6.64583333,7.22250833 6.56374583,7.05833333 6.4625,7.05833333 L5.3625,7.05833333 C5.26125417,7.05833333 5.17916667,7.22250833 5.17916667,7.425 L5.17916667,9.625 C5.17916667,9.82749167 5.26125417,9.99166667 5.3625,9.99166667 Z" id="Shape-Copy-2" fill-rule="nonzero"></path>
                    <path d="M5.3625,14.6666667 L6.4625,14.6666667 C6.56374583,14.6666667 6.64583333,14.5024917 6.64583333,14.3 L6.64583333,12.1 C6.64583333,11.8975083 6.56374583,11.7333333 6.4625,11.7333333 L5.3625,11.7333333 C5.26125417,11.7333333 5.17916667,11.8975083 5.17916667,12.1 L5.17916667,14.3 C5.17916667,14.5024917 5.26125417,14.6666667 5.3625,14.6666667 Z" id="Shape-Copy-4" fill-rule="nonzero"></path>
                    <path d="M5.3625,19.0666667 L6.4625,19.0666667 C6.56374583,19.0666667 6.64583333,18.9024917 6.64583333,18.7 L6.64583333,16.5 C6.64583333,16.2975083 6.56374583,16.1333333 6.4625,16.1333333 L5.3625,16.1333333 C5.26125417,16.1333333 5.17916667,16.2975083 5.17916667,16.5 L5.17916667,18.7 C5.17916667,18.9024917 5.26125417,19.0666667 5.3625,19.0666667 Z" id="Shape-Copy-6" fill-rule="nonzero"></path>
                </g>
            </g>
        </g>
    </g>
</svg>