<?xml version="1.0" encoding="UTF-8"?>
<svg width="22px" height="22px" viewBox="0 0 22 22" version="1.1" xmlns="http://www.w3.org/2000/svg" xmlns:xlink="http://www.w3.org/1999/xlink">
    <!-- Generator: Sketch 51.3 (57544) - http://www.bohemiancoding.com/sketch -->
    <title>event</title>
    <desc>Created with Sketch.</desc>
    <defs></defs>
    <g id="Page-1" stroke="none" stroke-width="1" fill="none" fill-rule="evenodd">
        <g id="Artboard-2" transform="translate(-73.000000, -239.000000)" fill="#3C4044">
            <g id="event" transform="translate(73.000000, 239.000000)">
                <g id="christmas-day">
                    <path d="M19.8,2.5375625 L19.0666829,2.5375625 L19.0666829,1.93763281 C19.0666829,0.869214844 18.0797224,0 16.8666829,0 C15.6536435,0 14.6666829,0.869214844 14.6666829,1.93763281 L14.6666829,2.5375625 L7.33331707,2.5375625 L7.33331707,1.93763281 C7.33331707,0.869214844 6.34640529,0 5.13331707,0 C3.92022886,0 2.93331707,0.869214844 2.93331707,1.93763281 L2.93331707,2.5375625 L2.2,2.5375625 C0.986911784,2.5375625 0,3.40677734 0,4.47519531 L0,20.0623672 C3.4665233e-16,21.1307852 0.986911784,22 2.2,22 L19.8,22 C21.0130882,22 22,21.1307852 22,20.0623672 L22,4.47519531 C22,3.40677734 21.0130882,2.5375625 19.8,2.5375625 Z M16.1333171,1.93763281 C16.1333171,1.58150781 16.4622877,1.29176953 16.8666341,1.29176953 C17.2709806,1.29176953 17.5999512,1.58150781 17.5999512,1.93763281 L17.5999512,4.52112891 C17.5999512,4.87725391 17.2709806,5.16699219 16.8666341,5.16699219 C16.4622877,5.16699219 16.1333171,4.87725391 16.1333171,4.52112891 L16.1333171,1.93763281 Z M4.4,1.93763281 C4.4,1.58150781 4.72897059,1.29176953 5.13331707,1.29176953 C5.53766355,1.29176953 5.86663414,1.58150781 5.86663414,1.93763281 L5.86663414,4.52112891 C5.86663414,4.87725391 5.53766355,5.16699219 5.13331707,5.16699219 C4.72897059,5.16699219 4.4,4.87725391 4.4,4.52112891 L4.4,1.93763281 Z M20.5333171,20.0623672 C20.5333171,20.4184922 20.2043465,20.7082305 19.8,20.7082305 L2.2,20.7082305 C1.79565352,20.7082305 1.46668293,20.4184922 1.46668293,20.0623672 L1.46668293,8.99632422 L20.5333171,8.99632422 L20.5333171,20.0623672 Z M20.5333171,7.70459766 L1.46668293,7.70459766 L1.46668293,4.47519531 C1.46668293,4.11907031 1.79565352,3.82933203 2.2,3.82933203 L2.93331707,3.82933203 L2.93331707,4.52117187 C2.93331707,5.58958984 3.92022886,6.45880469 5.13331707,6.45880469 C6.34640529,6.45880469 7.33331707,5.58958984 7.33331707,4.52117187 L7.33331707,3.82933203 L14.6666341,3.82933203 L14.6666341,4.52117187 C14.6666341,5.58958984 15.6535459,6.45880469 16.8666341,6.45880469 C18.0797224,6.45880469 19.0666341,5.58958984 19.0666341,4.52117187 L19.0666341,3.82933203 L19.7999512,3.82933203 C20.2042977,3.82933203 20.5332683,4.11907031 20.5332683,4.47519531 L20.5333171,7.70459766 Z" id="Shape" fill-rule="nonzero"></path>
                </g>
            </g>
        </g>
    </g>
</svg>