<?xml version="1.0" encoding="UTF-8"?>
<svg width="22px" height="22px" viewBox="0 0 22 22" version="1.1" xmlns="http://www.w3.org/2000/svg" xmlns:xlink="http://www.w3.org/1999/xlink">
    <!-- Generator: Sketch 51.3 (57544) - http://www.bohemiancoding.com/sketch -->
    <title>crane (3) copy</title>
    <desc>Created with Sketch.</desc>
    <defs></defs>
    <g id="Page-1" stroke="none" stroke-width="1" fill="none" fill-rule="evenodd">
        <g id="Artboard-2" transform="translate(-272.000000, -197.000000)" fill="#3C4044">
            <g id="crane-(3)" transform="translate(272.000000, 197.000000)">
                <g id="Shape">
                    <path d="M20.0664062,14.265625 C19.7110748,14.265625 19.421875,13.9764252 19.421875,13.6210938 C19.421875,13.2657623 19.7110748,12.9765625 20.0664062,12.9765625 L20.7109375,12.9765625 L20.7109375,5.39643861 L10.3554688,1.52925111 L10.3554688,0 L9.06640625,0 L9.06640625,1.55073548 L0,5.41792298 L0,10.3984375 L5.19921875,10.3984375 L5.19921875,7.8203125 L6.48828125,7.8203125 L6.48828125,20.7109375 L5.19921875,20.7109375 L5.19921875,22 L14.2226562,22 L14.2226562,20.7109375 L12.9335938,20.7109375 L12.9335938,7.8203125 L19.4223786,7.8203125 L19.4223786,11.7979431 C18.6721039,12.0639801 18.1328125,12.7808532 18.1328125,13.6210938 C18.1328125,14.6872559 19.0002441,15.5546875 20.0664062,15.5546875 C21.1325684,15.5546875 22,14.6872559 22,13.6210938 L20.7109375,13.6210938 C20.7109375,13.9764252 20.4217377,14.265625 20.0664062,14.265625 Z M3.91015625,9.109375 L1.2890625,9.109375 L1.2890625,7.8203125 L3.91015625,7.8203125 L3.91015625,9.109375 Z M1.2890625,6.53125 L1.2890625,6.26957702 L9.06640625,2.9520874 L9.06640625,6.53125 L1.2890625,6.53125 Z M11.6445312,16.3254395 L8.34886168,14.265625 L11.6445312,12.2058105 L11.6445312,16.3254395 Z M11.1503906,17.5366211 L7.77734375,20.0664062 L7.77734375,15.4284668 L11.1503906,17.5366211 Z M7.77734375,13.1027832 L7.77734375,8.46484375 L11.1503906,10.9946289 L7.77734375,13.1027832 Z M9.06640625,20.7109375 L11.6445312,18.7773438 L11.6445312,20.7109375 L9.06640625,20.7109375 Z M11.6445312,9.75390625 L9.06640625,7.8203125 L11.6445312,7.8203125 L11.6445312,9.75390625 Z M10.3554688,6.53125 L10.3554688,2.90525817 L19.4223786,6.29106139 L19.4223786,6.53125 L10.3554688,6.53125 Z" fill-rule="nonzero"></path>
                </g>
            </g>
        </g>
    </g>
</svg>