<?xml version="1.0" encoding="UTF-8"?>
<svg width="22px" height="22px" viewBox="0 0 22 22" version="1.1" xmlns="http://www.w3.org/2000/svg" xmlns:xlink="http://www.w3.org/1999/xlink">
    <!-- Generator: Sketch 51.3 (57544) - http://www.bohemiancoding.com/sketch -->
    <title>square copy 3</title>
    <desc>Created with Sketch.</desc>
    <defs></defs>
    <g id="Page-1" stroke="none" stroke-width="1" fill="none" fill-rule="evenodd">
        <g id="Artboard-2" transform="translate(-472.000000, -239.000000)" fill="#3C4044">
            <g id="dollar" transform="translate(472.000000, 239.000000)">
                <g id="dollar-(1)" stroke-width="1" fill-rule="evenodd" transform="translate(9.195312, 4.468750)">
                    <path d="M2.87890625,4.62152778 C1.94268594,4.62152778 1.1515625,4.09236285 1.1515625,3.46614583 C1.1515625,2.83992882 1.94268594,2.31076389 2.87890625,2.31076389 C3.408625,2.31076389 3.89919062,2.47713889 4.22393125,2.76598437 C4.46115312,2.97741927 4.82389531,2.95777778 5.03693437,2.71745833 C5.24882187,2.47944965 5.22694219,2.11434896 4.98856875,1.90175868 C4.58552187,1.5424349 4.0442875,1.29980469 3.4546875,1.20390799 L3.4546875,0.577690972 C3.4546875,0.258805556 3.1967375,0 2.87890625,0 C2.561075,0 2.303125,0.258805556 2.303125,0.577690972 L2.303125,1.20159722 C0.99034375,1.41649826 0,2.35004687 0,3.46614583 C0,4.74053212 1.29205312,5.77690972 2.87890625,5.77690972 C3.81512656,5.77690972 4.60625,6.30607465 4.60625,6.93229167 C4.60625,7.55850868 3.81512656,8.08767361 2.87890625,8.08767361 C2.3491875,8.08767361 1.85862187,7.92129861 1.53388125,7.63245312 C1.29665937,7.41986285 0.932765625,7.44065972 0.720878125,7.68097917 C0.508990625,7.91898785 0.530870312,8.28408854 0.76924375,8.49667882 C1.17229062,8.85715799 1.713525,9.09863281 2.303125,9.1956849 L2.303125,9.82074653 C2.303125,10.1396319 2.561075,10.3984375 2.87890625,10.3984375 C3.1967375,10.3984375 3.4546875,10.1396319 3.4546875,9.82074653 L3.4546875,9.19684028 C4.76746875,8.98193924 5.7578125,8.04839062 5.7578125,6.93229167 C5.7578125,5.65790538 4.46575937,4.62152778 2.87890625,4.62152778 Z" id="Shape" fill-rule="nonzero"></path>
                </g>
                <path d="M0,0 L22,0 L22,22 L0,22 L0,0 Z M1.33203125,1.33203125 L1.33203125,20.6679688 L20.6679688,20.6679688 L20.6679688,1.33203125 L1.33203125,1.33203125 Z" id="Combined-Shape" fill-rule="nonzero"></path>
                <path d="M5.671875,17.9179688 L4.46875,17.9179688 L4.46875,7.3046875 L3.48046875,7.3046875 L5.0703125,4.8984375 L6.66015625,7.3046875 L5.671875,7.3046875 L5.671875,16.7148438 L14.4375,16.7148438 L14.4375,15.7265625 L16.84375,17.3164062 L14.4375,18.90625 L14.4375,17.9179688 L5.671875,17.9179688 Z" id="Combined-Shape" fill-rule="nonzero"></path>
            </g>
        </g>
    </g>
</svg>