<svg xmlns="http://www.w3.org/2000/svg" width="68.683" height="54.72" viewBox="0 0 68.683 54.72">
  <path id="Path_4" data-name="Path 4" d="M8.833-245.35q-4.9,2.8-7,9.45A34.321,34.321,0,0,0,.607-221.55a38.915,38.915,0,0,0,5.25,15.225A30.713,30.713,0,0,0,17.933-194.6a17.268,17.268,0,0,0,6.825,2.1q3.675.35,5.075-1.05,3.5-3.5-4.2-10.5-8.75-8.75-2.1-8.75,3.5,0,6.825-4.9a17.357,17.357,0,0,0,3.325-9.8,21.651,21.651,0,0,0-2.1-9.8,18.978,18.978,0,0,0-5.6-6.825,15.054,15.054,0,0,0-8.05-2.975A18.136,18.136,0,0,0,8.833-245.35Zm-35.35,0q-4.9,2.8-7,9.45a34.321,34.321,0,0,0-1.225,14.35,38.915,38.915,0,0,0,5.25,15.225A30.713,30.713,0,0,0-17.418-194.6a17.268,17.268,0,0,0,6.825,2.1q3.675.35,5.075-1.05,3.5-3.5-4.2-10.5-8.75-8.75-2.1-8.75,3.5,0,6.825-4.9a17.357,17.357,0,0,0,3.325-9.8,21.651,21.651,0,0,0-2.1-9.8,18.978,18.978,0,0,0-5.6-6.825,15.054,15.054,0,0,0-8.05-2.975A18.136,18.136,0,0,0-26.518-245.35Z" transform="translate(35 247.15)" fill="#d3e4e9"/>
</svg>
