<svg id="Group_25" data-name="Group 25" xmlns="http://www.w3.org/2000/svg" width="19.16" height="19.315" viewBox="0 0 19.16 19.315">
  <path id="Path_431" data-name="Path 431" d="M244.642,1283.3a9.421,9.421,0,0,1,3.377,12.87,9.523,9.523,0,0,1-3.377,3.377,9.433,9.433,0,0,1-9.293.11l-5.209,1.656,1.7-5.033a9.435,9.435,0,0,1-.066-9.6,9.362,9.362,0,0,1,12.869-3.377Zm.022,10.662a.8.8,0,0,0-.022-.365.428.428,0,0,0-.154-.143c.044.03-.052-.022-.287-.154q-1.413-.684-1.567-.729a.459.459,0,0,0-.574.155q-.486.662-.618.839a.535.535,0,0,1-.265.11.561.561,0,0,1-.309-.044q-.463-.2-.684-.309a7.331,7.331,0,0,1-1.17-.816,6.829,6.829,0,0,1-1.28-1.611.344.344,0,0,1-.044-.287.732.732,0,0,1,.132-.2l.353-.375a1.691,1.691,0,0,0,.276-.386.45.45,0,0,0-.055-.409l-.706-1.721a.762.762,0,0,0-.21-.309.536.536,0,0,0-.3-.067l-.265-.022a1.029,1.029,0,0,0-.795.288,3.449,3.449,0,0,0-.508.618,2.7,2.7,0,0,0-.309,1.3,4.148,4.148,0,0,0,.927,2.384c-.1-.147-.022-.036.243.332a7.637,7.637,0,0,0,.53.684q.4.465.817.883.53.484,1.06.883a6.673,6.673,0,0,0,1.3.706,9.166,9.166,0,0,0,1.9.618,2.407,2.407,0,0,0,.861-.022,2.817,2.817,0,0,0,.949-.4,1.488,1.488,0,0,0,.618-.728A2.45,2.45,0,0,0,244.665,1293.965Z" transform="translate(-230.14 -1282.001)" fill="#25d366"/>
</svg>
